<svg xmlns="http://www.w3.org/2000/svg" xmlns:xlink="http://www.w3.org/1999/xlink" id="Layer_1" x="0" y="0" version="1.1" viewBox="0 0 256 256" xml:space="preserve" style="enable-background:new 0 0 256 256"><style type="text/css">.st0{fill:#169a84}.st1{fill:#0b4f43}.st2{fill:#fff}.st3{fill:#169a84;stroke:#169a84;stroke-width:1.4609;stroke-miterlimit:10}</style><g><circle cx="128" cy="128" r="127" class="st0"/><path d="M128,2c33.7,0,65.3,13.1,89.1,36.9C240.9,62.7,254,94.3,254,128s-13.1,65.3-36.9,89.1 C193.3,240.9,161.7,254,128,254s-65.3-13.1-89.1-36.9C15.1,193.3,2,161.7,2,128s13.1-65.3,36.9-89.1S94.3,2,128,2 M128,0 C57.3,0,0,57.3,0,128s57.3,128,128,128s128-57.3,128-128S198.7,0,128,0L128,0z" class="st1"/></g><g><g><path d="M128,255.3c-8.5,0-17.1-0.9-25.4-2.5c16.3-22.5,16-48.4,16-48.7c0.1-6.4-2-11.7-6.2-16 c-9.5-9.6-28.2-11.6-42.3-11.6c-4.8,0-9.9,0.2-15.1,0.7l-7.5,0.4l-0.2,0.5c-1.4,4.1-5.2,6.9-9.6,6.9c-5.7,0-10.3-4.6-10.3-10.3 c0-5.7,4.6-10.3,10.3-10.3c4.2,0,7.9,2.5,9.4,6.4l0.2,0.5l6.7-0.2c10.8-0.5,18-4.1,21.3-10.6c4.3-8.5,0.5-19.5-3.1-24.9 l-10.8-21.8l-0.6,0.1c-0.6,0.1-1.2,0.2-1.7,0.2c-5.7,0-10.3-4.6-10.3-10.3s4.6-10.3,10.3-10.3c5.7,0,10.3,4.6,10.3,10.3 c0,2.3-0.8,4.5-2.2,6.4l-0.3,0.4l10.7,22.8c1.5,3.1,15,30,29.8,30c1.3,0,2.5-0.2,3.7-0.6l0.1,0l0.1,0c0.3-0.2,6.4-3.9,7.6-13.5 c2.5-19.3-17-43.9-33.8-61.1L78.1,80l-0.4,0.1c-1.3,0.4-2.3,0.5-3.3,0.5C68.6,80.6,64,76,64,70.4c0-5.7,4.6-10.3,10.3-10.3 s10.3,4.6,10.3,10.3c0,1.7-0.4,3.4-1.1,4.8l-0.3,0.5l12.6,13.6c0.5,0.5,1.1,1.2,1.8,1.9c4.5,4.9,12.1,13,18,13c0.2,0,0.5,0,0.7,0 c0.1,0,0.2,0,0.3,0c1.8,0,8.3-1.1,17.5-14.6l7.7-11.3l-0.4-0.4c-2-2-3.2-4.6-3.2-7.4c0-5.7,4.6-10.3,10.3-10.3 c5.7,0,10.3,4.6,10.3,10.3c0,5.7-4.6,10.3-10.3,10.3l-0.1,0c-0.1,0-0.2,0-0.3,0l-0.4,0l-7.8,10c-5.8,6.9-24.1,31.2-12.2,52.8 l0,0.1l0,0.1c0.2,0.2,4.4,5.2,10.8,5.2c6.9,0,17.1-6.1,26.5-35c0.1-0.1,0.1-0.2,0.1-0.4l5.7-20.5l-0.3-0.3 c-1.8-1.9-2.9-4.5-2.9-7.2c0-5.7,4.6-10.3,10.3-10.3c5.7,0,10.3,4.6,10.3,10.3s-4.6,10.3-10.3,10.3c-0.1,0-0.3,0-0.4,0 c-0.1,0-0.3,0-0.4-0.1l-0.6,0l-3.7,13.5c-0.5,2-1.3,4.2-2,6.6c-2.9,8.9-6.2,19.1-0.4,22.7c0.1,0.1,3.2,2,15,2 c6.1,0,13.6-0.5,22.1-1.5l0.8,0l0.1-0.5c1.1-4.5,5.2-7.8,9.9-7.8c5.7,0,10.3,4.6,10.3,10.3c0,5.7-4.6,10.3-10.3,10.3 c-4.1,0-7.9-2.5-9.5-6.2l-0.2-0.5l-10.3,0.7c-0.5,0-10.4,0.2-21.5,2.1c-15.1,2.5-25.3,6.6-30.4,12.2c-2.8,3.1-4,6.6-3.6,10.4 c0.1,0.5,1.8,10.1,19,10.1c4.9,0,10.7-0.8,17.2-2.4l20.1-5.7l0.1-0.5c0.8-5,5.1-8.6,10.1-8.6c5.7,0,10.3,4.6,10.3,10.3 c0,5.7-4.6,10.3-10.3,10.3c-3.5,0-6.7-1.7-8.6-4.6l-0.3-0.4l-19.8,5.4c-9.8,2.8-36,10.1-38.3,33.9c0,0.1-3.9,20.4,5.2,36.4 C140.9,254.8,134.4,255.3,128,255.3L128,255.3z" class="st2"/><path d="M74.3,60.8c5.3,0,9.5,4.3,9.5,9.5c0,1.6-0.4,3.2-1.1,4.4l-0.5,0.9l0.7,0.8l12.3,13.2c0.5,0.5,1.1,1.2,1.8,1.9 c4.9,5.3,12.3,13.2,18.6,13.2c0.2,0,0.5,0,0.7,0c0.1,0,0.2,0,0.3,0c7.4,0,15.7-11.4,18.1-14.9l7.3-10.8l0.7-1l-0.9-0.9 c-1.9-1.8-3-4.3-3-6.8c0-5.3,4.3-9.5,9.6-9.5c5.3,0,9.6,4.3,9.6,9.5c0,5.2-4.3,9.5-9.5,9.5l0,0c-0.1,0-0.3,0-0.4-0.1l-0.8,0 l-0.5,0.6l-7.5,9.7c-2.5,2.9-8.6,10.8-12.6,20.6c-5,12.4-4.9,23.5,0.3,33.1l0.1,0.1l0.1,0.1c0.2,0.2,4.6,5.5,11.4,5.5 c10.4,0,19.5-11.9,27.2-35.5c0.1-0.2,0.1-0.4,0.2-0.5l5.6-20l0.2-0.8l-0.6-0.6c-1.7-1.8-2.7-4.2-2.7-6.7c0-5.3,4.3-9.5,9.5-9.5 c5.3,0,9.5,4.3,9.5,9.5c0,5.3-4.3,9.5-9.5,9.5c-0.1,0-0.1,0-0.3,0c-0.2,0-0.3,0-0.5-0.1l-1.2-0.1l-0.3,1.2l-3.6,13 c-0.5,2-1.3,4.2-2,6.5c-3,9.2-6.4,19.6-0.2,23.5c0.3,0.2,3.6,2.2,15.4,2.2c6.1,0,13.6-0.5,22.1-1.5l0.2,0l1.1-0.1l0.3-1.1 c1-4.2,4.8-7.2,9.2-7.2c5.3,0,9.5,4.3,9.5,9.5c0,5.3-4.3,9.5-9.5,9.5c-3.8,0-7.3-2.3-8.8-5.7l-0.4-1l-1,0.1l-9.7,0.7 c-1.6,0-40,0.8-52.4,14.5c-2.9,3.2-4.2,6.9-3.8,11l0,0l0,0c0.1,0.4,1.9,10.7,19.7,10.7c5,0,10.8-0.8,17.4-2.4l19.6-5.5l0.9-0.3 l0.2-0.9c0.8-4.6,4.7-7.9,9.4-7.9c5.3,0,9.5,4.3,9.5,9.5c0,5.3-4.3,9.5-9.5,9.5c-3.2,0-6.2-1.6-8-4.3l-0.6-0.9l-1,0.3l-19.3,5.3 c-10,2.8-36.4,10.2-38.8,34.5c-0.3,1.5-3.6,20.3,4.7,36c-6,0.9-12.1,1.3-18.1,1.3c-8.1,0-16.2-0.8-24.2-2.3 c15.7-22.4,15.5-47.1,15.5-48.2c0.1-6.6-2.1-12.1-6.4-16.5c-9.7-9.8-28.6-11.8-42.8-11.8c-4.8,0-9.9,0.2-15.1,0.7l-7,0.4l-1,0.1 l-0.3,0.9c-1.3,3.8-4.9,6.4-8.9,6.4c-5.3,0-9.6-4.3-9.6-9.5c0-5.3,4.3-9.6,9.6-9.6c3.9,0,7.3,2.3,8.7,5.9l0.4,1l1,0l6.2-0.2 c11.1-0.5,18.5-4.2,21.9-11c4.4-8.7,0.6-20-3.1-25.5l-10.6-21.3l-0.5-1l-1.1,0.2c-0.6,0.1-1.1,0.2-1.5,0.2c-5.3,0-9.6-4.3-9.6-9.5 c0-5.3,4.3-9.5,9.6-9.5c5.3,0,9.5,4.3,9.5,9.5c0,2.7-1.1,4.7-2.1,5.9l-0.5,0.7l0.4,0.8l10.5,22.4c1.5,3.1,15.2,30.4,30.4,30.4 c1.3,0,2.7-0.2,3.9-0.6l0.2-0.1l0.1-0.1c0.3-0.2,6.7-4.1,8-14.1c2.6-19.6-17.1-44.4-34-61.7l-6.8-7.5l-0.6-0.7l-0.9,0.3 c-1.2,0.3-2.2,0.5-3.1,0.5c-5.3,0-9.5-4.3-9.5-9.5C64.7,65.1,69,60.8,74.3,60.8 M74.3,59.4c-6.1,0-11,4.9-11,11 c0,6.1,4.9,11,11,11c1.3,0,2.4-0.2,3.5-0.6l6.8,7.5c55.1,56.4,26.3,73.5,26.3,73.5c-1.2,0.4-2.3,0.6-3.5,0.6 c-13.7,0-26.6-24.4-29.1-29.5l-10.5-22.4c1.4-1.9,2.4-4.2,2.4-6.8c0-6.1-4.9-11-11-11c-6.1,0-11,4.9-11,11c0,6.1,4.9,11,11,11 c0.7,0,1.3-0.1,1.9-0.2l10.6,21.3c6.3,9.4,11.4,32.9-17.6,34.3l-6.2,0.2c-1.6-4-5.5-6.8-10.1-6.8c-6.1,0-11.1,5-11.1,11.1 c0,6,5,11,11.1,11c4.8,0,8.8-3.1,10.3-7.4l7-0.4c3.4-0.3,8.8-0.7,15.1-0.7c19.8,0,48,3.9,47.7,26.9c0,0,0.4,26.4-16.6,49.2 c8.6,1.8,17.5,2.8,26.7,2.8h0c6.9,0,13.8-0.6,20.4-1.6c-9.7-16-5.6-36.9-5.6-36.9c2.2-22,24.4-29.5,37.8-33.3l19.3-5.3 c2,3,5.4,5,9.2,5c6.1,0,11-4.9,11-11c0-6.1-4.9-11-11-11c-5.4,0-9.9,4-10.8,9.2l-19.6,5.5c-6.9,1.7-12.5,2.4-17,2.4 c-16.8,0-18.2-9.4-18.2-9.4c-2.1-22.7,54.1-23.8,54.8-23.8c0,0,0,0,0,0l9.8-0.7c1.7,3.9,5.6,6.6,10.1,6.6c6.1,0,11-4.9,11-11 c0-6.1-4.9-11-11-11c-5.2,0-9.5,3.6-10.6,8.3l-0.3,0c-9.5,1.1-16.7,1.5-22,1.5c-11.8,0-14.6-1.9-14.6-1.9 c-6.7-4.2,0.2-18.8,2.8-28.4l3.6-13c0.3,0,0.5,0.1,0.9,0.1c6.1,0,11-4.9,11-11c0-6.1-4.9-11-11-11c-6.1,0-11,4.9-11,11 c0,2.9,1.2,5.7,3.1,7.7l-5.6,20.2c0,0.1-0.1,0,0,0.1c-9.2,28.1-18.8,34.6-25.9,34.6c-6.1,0-10.2-4.9-10.2-4.9 c-11.8-21.4,7.1-46.1,12.1-52l7.5-9.7c0.2,0,0.4,0.1,0.5,0.1c6,0,11.1-4.9,11.1-11c0-6.1-5-11-11.1-11c-6,0-11,4.9-11,11 c0,3.1,1.3,5.9,3.4,7.9L133.4,89c-9.1,13.4-15.4,14.2-16.9,14.2c-0.2,0-0.3,0-0.3,0c-0.2,0-0.5,0-0.7,0 c-6.4,0-15.2-10.5-19.3-14.6L84,75.5c0.8-1.5,1.2-3.3,1.2-5.1C85.3,64.3,80.4,59.4,74.3,59.4L74.3,59.4z" class="st1"/></g><path d="M77.8,70.1c0,1.9-1.6,3.6-3.5,3.6c-1.9,0-3.5-1.6-3.5-3.6c0-1.9,1.6-3.4,3.5-3.4 C76.3,66.6,77.8,68.2,77.8,70.1z" class="st3"/><path d="M62.8,103.6c0,1.9-1.6,3.6-3.5,3.6c-1.9,0-3.5-1.6-3.5-3.6c0-1.9,1.6-3.4,3.5-3.4 C61.3,100.1,62.8,101.6,62.8,103.6z" class="st3"/><path d="M41.4,174.6c0,1.9-1.6,3.6-3.5,3.6c-1.9,0-3.5-1.6-3.5-3.6c0-1.9,1.6-3.4,3.5-3.4 C39.8,171.1,41.4,172.7,41.4,174.6z" class="st3"/><path d="M222.3,140.7c0,1.9-1.6,3.6-3.5,3.6c-1.9,0-3.5-1.6-3.5-3.6c0-1.9,1.6-3.4,3.5-3.4 C220.7,137.3,222.3,138.8,222.3,140.7z" class="st3"/><path d="M212.8,173c0,1.9-1.6,3.6-3.5,3.6c-1.9,0-3.5-1.6-3.5-3.6c0-1.9,1.6-3.4,3.5-3.4 C211.2,169.5,212.8,171.1,212.8,173z" class="st3"/><path d="M181.7,84.9c0,1.9-1.6,3.6-3.5,3.6c-1.9,0-3.5-1.6-3.5-3.6c0-1.9,1.6-3.4,3.5-3.4 C180.2,81.5,181.7,83,181.7,84.9z" class="st3"/><path d="M152.1,70.3c0,1.9-1.6,3.6-3.5,3.6c-1.9,0-3.5-1.6-3.5-3.6c0-1.9,1.6-3.4,3.5-3.4 C150.6,66.8,152.1,68.3,152.1,70.3z" class="st3"/></g></svg>